<?xml version="1.0" standalone="no"?>
<!DOCTYPE svg PUBLIC "-//W3C//DTD SVG 20010904//EN"
 "http://www.w3.org/TR/2001/REC-SVG-20010904/DTD/svg10.dtd">
<svg version="1.0" xmlns="http://www.w3.org/2000/svg"
 width="384.000000pt" height="397.000000pt" viewBox="0 0 384.000000 397.000000"
 preserveAspectRatio="xMidYMid meet">

<g transform="translate(0.000000,397.000000) scale(0.100000,-0.100000)"
fill="#000000" stroke="none">
<path d="M3033 3944 c-5 -11 -8 -59 -8 -109 0 -74 4 -98 24 -138 28 -57 70
-91 132 -108 40 -11 53 -10 95 6 111 40 189 27 241 -41 29 -39 41 -110 23
-143 -20 -38 -34 -19 -31 41 2 47 -2 59 -24 86 -31 37 -83 56 -128 47 -58 -13
-107 -75 -107 -137 l0 -32 -68 67 c-37 37 -71 67 -75 67 -4 0 -7 -26 -7 -57
l0 -57 172 -173 172 -173 65 0 65 0 -59 61 c-38 38 -53 59 -40 56 104 -28 172
-14 231 48 69 71 85 195 39 294 -68 145 -161 205 -377 241 -131 22 -201 53
-273 121 -48 46 -56 49 -62 33z"/>
<path d="M1637 3746 c-77 -32 -127 -66 -180 -121 -45 -48 -117 -160 -117 -182
0 -10 26 -13 113 -13 118 1 126 10 28 34 l-45 12 57 28 c94 45 210 166 240
249 9 24 -25 22 -96 -7z"/>
<path d="M2090 3711 c41 -76 137 -168 216 -207 l58 -28 -49 -12 c-89 -23 -77
-34 38 -34 67 0 107 4 107 10 0 40 -96 174 -163 229 -51 41 -151 90 -202 98
l-38 6 33 -62z"/>
<path d="M2394 3693 c16 -68 72 -160 135 -224 36 -36 77 -73 91 -82 25 -16 24
-16 -35 -17 -33 0 -77 -5 -97 -11 -38 -10 -38 -10 -38 -64 0 -55 0 -55 31 -55
35 0 161 40 219 70 l39 20 -21 61 c-26 77 -105 196 -160 241 -44 36 -138 88
-159 88 -7 0 -9 -10 -5 -27z"/>
<path d="M1330 3679 c-68 -37 -131 -97 -177 -167 -38 -59 -86 -179 -79 -197
10 -28 270 -106 297 -90 13 9 11 102 -2 111 -6 4 -57 9 -113 13 l-101 6 37 23
c82 51 189 205 212 305 8 35 -4 35 -74 -4z"/>
<path d="M182 3667 l-32 -12 223 -223 c122 -122 225 -222 228 -222 4 0 9 12
12 28 3 15 21 53 40 84 l35 56 -132 131 c-85 83 -148 137 -176 150 -51 23
-145 27 -198 8z"/>
<path d="M81 3574 c-49 -75 -55 -202 -13 -298 l21 -46 213 0 213 0 -195 195
c-107 107 -198 195 -201 195 -4 0 -21 -21 -38 -46z"/>
<path d="M2700 3593 c0 -41 32 -147 59 -201 16 -32 49 -80 73 -106 l43 -47 39
40 39 40 -36 74 c-38 82 -89 143 -153 188 -49 33 -64 36 -64 12z"/>
<path d="M1025 3551 c-84 -65 -143 -161 -176 -288 -28 -110 -26 -120 19 -132
89 -25 200 -34 272 -22 68 11 140 38 140 52 0 3 -23 16 -51 28 -67 29 -166 37
-251 19 -38 -8 -68 -13 -68 -11 0 2 18 23 41 46 71 74 123 185 144 310 8 48
-5 48 -70 -2z"/>
<path d="M1876 3577 c-36 -26 4 -84 42 -61 23 15 26 38 7 58 -20 19 -26 20
-49 3z"/>
<path d="M2018 3548 c-21 -6 -38 -13 -38 -18 0 -17 108 -54 170 -57 98 -6 119
24 48 67 -36 22 -115 25 -180 8z"/>
<path d="M1599 3527 c-19 -13 -34 -31 -34 -42 0 -18 7 -20 75 -20 64 1 83 5
129 30 l54 30 -29 12 c-16 7 -59 12 -95 13 -53 0 -73 -5 -100 -23z"/>
<path d="M2484 3425 c-4 -9 -2 -21 4 -27 16 -16 47 -5 47 17 0 26 -42 34 -51
10z"/>
<path d="M753 3377 c-90 -95 -126 -193 -127 -342 l-1 -100 135 1 c146 1 208
16 280 69 l33 24 -29 13 c-17 7 -67 12 -119 11 -84 0 -119 -8 -219 -48 -14 -6
-9 5 18 46 54 82 77 159 83 277 3 56 3 102 1 102 -3 0 -28 -24 -55 -53z"/>
<path d="M1282 3421 c-20 -12 -10 -46 14 -49 25 -4 40 24 23 44 -13 16 -19 17
-37 5z"/>
<path d="M1424 3386 c-3 -7 -4 -256 -1 -552 4 -579 4 -578 58 -691 13 -27 48
-73 78 -104 91 -90 194 -129 346 -129 253 0 427 131 474 358 7 35 11 237 11
592 l0 540 -480 0 c-400 0 -482 -2 -486 -14z m686 -236 l0 -100 75 0 75 0 0
-75 0 -75 -70 0 -70 0 0 -35 0 -35 70 0 70 0 0 -80 0 -80 -70 0 -70 0 -2 -242
-3 -243 -59 -3 -59 -3 -89 88 -88 88 -80 -80 -80 -80 -57 58 -58 57 130 130
130 130 67 -67 68 -67 0 337 0 337 -140 0 -140 0 0 70 0 70 225 0 225 0 0
-100z"/>
<path d="M2931 3223 l-144 -156 150 -148 c83 -82 154 -149 159 -149 5 0 74 65
154 145 l145 145 -160 160 -160 159 -144 -156z"/>
<path d="M2596 3215 c-41 -16 -66 -33 -66 -45 0 -16 83 -41 155 -47 l73 -6 49
46 c26 25 44 49 40 54 -16 15 -209 14 -251 -2z"/>
<path d="M512 3162 c-54 -80 -74 -145 -79 -257 -2 -62 1 -121 9 -155 l14 -55
49 3 c130 9 271 62 340 129 l39 37 -38 8 c-62 13 -153 -7 -246 -54 l-86 -43
25 60 c35 87 47 188 34 281 -6 42 -15 80 -20 85 -5 5 -22 -12 -41 -39z"/>
<path d="M110 3193 c0 -14 64 -80 164 -168 l99 -88 18 73 c11 40 32 97 49 126
16 30 30 56 30 59 0 3 -81 5 -180 5 -99 0 -180 -3 -180 -7z"/>
<path d="M783 3104 c-3 -8 1 -22 9 -30 12 -12 17 -12 33 -1 23 17 14 47 -15
47 -11 0 -23 -7 -27 -16z"/>
<path d="M2683 3011 l-31 -38 174 -174 174 -174 35 35 35 35 -178 177 -177
177 -32 -38z"/>
<path d="M3449 2933 c-37 -97 -38 -276 -2 -369 4 -12 -15 -1 -53 28 -32 26
-85 59 -117 73 -60 28 -177 46 -177 28 0 -21 80 -99 135 -132 62 -38 203 -91
240 -91 20 0 27 10 47 68 19 56 23 87 23 192 0 120 -1 128 -32 193 -18 37 -34
67 -37 67 -2 0 -14 -26 -27 -57z"/>
<path d="M1013 2945 c-23 -12 -52 -25 -65 -28 -21 -6 -18 -11 42 -66 36 -33
68 -60 73 -61 4 0 7 41 7 90 0 50 -3 89 -7 89 -5 -1 -27 -12 -50 -24z"/>
<path d="M3325 2920 l-49 -50 17 -36 18 -36 -33 20 -33 21 -42 -40 c-23 -21
-39 -40 -35 -43 13 -8 126 -26 163 -26 l37 0 11 75 c13 90 14 152 3 159 -5 3
-31 -17 -57 -44z"/>
<path d="M306 2898 c-43 -102 -46 -257 -7 -378 33 -102 27 -99 124 -67 87 28
183 80 230 125 l27 26 -27 28 c-15 15 -33 28 -40 28 -28 0 -119 -50 -179 -98
l-60 -49 13 51 c16 61 17 187 2 257 -7 30 -22 64 -39 83 l-29 31 -15 -37z"/>
<path d="M1110 2835 l0 -100 123 -123 c67 -67 126 -122 130 -122 4 0 7 42 7
93 l0 92 -130 130 -130 130 0 -100z"/>
<path d="M2543 2793 l-101 -109 -4 -222 -3 -222 60 0 60 0 188 188 187 187
-143 143 -144 143 -100 -108z"/>
<path d="M886 2813 c-47 -52 -106 -89 -182 -112 -52 -17 -54 -18 -36 -34 17
-15 44 -17 241 -15 l221 3 -102 101 -103 101 -39 -44z"/>
<path d="M3344 2685 c-4 -9 -2 -21 4 -27 16 -16 47 -5 47 17 0 26 -42 34 -51
10z"/>
<path d="M3615 2656 c-15 -26 -38 -82 -52 -124 -20 -64 -24 -93 -21 -168 l3
-91 -62 67 c-65 70 -149 123 -215 135 -29 6 -38 4 -38 -7 0 -27 72 -119 128
-163 72 -57 193 -120 214 -112 25 9 87 144 104 227 17 78 14 168 -8 232 -17
52 -24 53 -53 4z"/>
<path d="M430 2655 c-11 -13 -11 -19 3 -32 21 -21 49 -9 45 19 -4 28 -30 35
-48 13z"/>
<path d="M159 2635 c-9 -19 -13 -73 -14 -145 0 -95 4 -126 23 -174 29 -80 83
-166 102 -166 25 0 161 84 218 135 47 42 112 134 112 159 0 13 -69 -3 -119
-29 -56 -28 -129 -91 -162 -139 -13 -20 -26 -36 -29 -36 -3 0 -4 30 -2 68 5
108 -38 253 -101 337 -15 20 -16 19 -28 -10z"/>
<path d="M732 2611 c2 -4 58 -58 124 -120 l122 -111 196 0 196 0 0 23 c0 16
-30 53 -99 120 l-98 97 -222 0 c-123 0 -221 -4 -219 -9z"/>
<path d="M3727 2350 c-57 -67 -107 -173 -123 -258 -7 -42 -13 -83 -14 -91 0
-8 -16 12 -36 45 -45 76 -103 135 -165 169 -69 37 -81 32 -62 -25 31 -91 154
-230 249 -280 23 -13 27 -11 59 21 87 87 145 231 145 358 0 104 -8 113 -53 61z"/>
<path d="M56 2335 c-11 -29 -6 -148 8 -200 7 -27 25 -75 41 -105 35 -69 115
-170 135 -170 23 1 135 95 181 152 44 56 82 126 93 172 7 27 6 28 -19 22 -69
-17 -160 -103 -217 -203 l-33 -58 -7 60 c-3 34 -15 86 -26 118 -21 58 -95 179
-130 210 -18 16 -20 16 -26 2z"/>
<path d="M1020 2342 c0 -5 24 -29 54 -55 l55 -47 125 0 126 0 0 48 0 49 -107
6 c-145 9 -253 9 -253 -1z"/>
<path d="M1060 1505 l0 -684 373 -3 372 -3 48 -28 47 -28 0 551 0 550 -43 0
c-164 0 -343 110 -421 260 l-37 70 -170 0 -169 0 0 -685z m176 303 c5 -7 18
-53 30 -103 23 -94 21 -94 39 -15 2 8 11 41 20 73 l17 58 96 -3 c97 -3 97 -3
100 -30 3 -24 -1 -27 -30 -30 -29 -3 -33 -7 -36 -35 -3 -28 0 -32 25 -35 22
-2 29 -9 31 -30 3 -23 -1 -27 -25 -30 -24 -3 -28 -8 -31 -40 -3 -38 -3 -38 33
-38 34 0 36 -2 33 -27 -3 -27 -5 -28 -67 -28 l-63 0 1 150 c1 87 -2 146 -7
140 -5 -6 -24 -66 -42 -135 -40 -151 -44 -160 -74 -160 -21 0 -27 13 -69 159
-26 87 -47 161 -47 165 0 11 59 6 66 -6z m471 -23 c29 -34 30 -84 1 -120 l-22
-28 22 -61 c28 -79 28 -86 -7 -86 -27 0 -31 5 -53 65 -12 36 -26 65 -30 65 -5
0 -8 -29 -8 -65 l0 -65 -30 0 -30 0 0 166 0 167 67 -6 c57 -4 71 -9 90 -32z
m111 -132 l2 -163 -35 0 -35 0 0 158 c0 87 3 162 7 166 4 4 19 6 33 4 l25 -3
3 -162z m-45 -240 c4 -2 7 -17 7 -33 0 -28 -2 -29 -26 -20 -29 11 -54 -1 -54
-26 0 -7 23 -36 51 -63 50 -49 51 -53 46 -93 -7 -51 -44 -88 -87 -88 -45 0
-60 10 -60 40 0 27 2 28 34 23 28 -4 36 -1 45 16 10 18 6 27 -39 70 -43 42
-50 54 -50 88 0 77 68 122 133 86z m-393 -23 c0 -25 -4 -30 -25 -30 l-25 0 0
-135 0 -135 -30 0 -30 0 0 135 0 135 -25 0 c-21 0 -25 5 -25 30 l0 30 80 0 80
0 0 -30z m197 -130 c22 -87 38 -162 35 -165 -3 -3 -18 -5 -34 -5 -24 0 -30 5
-34 30 -6 26 -11 30 -39 30 -29 0 -34 -4 -40 -30 -5 -25 -11 -30 -36 -30 -19
0 -29 5 -29 14 0 8 13 72 30 143 16 70 32 138 35 151 4 17 12 22 39 22 l34 0
39 -160z"/>
<path d="M1610 1720 c0 -33 3 -40 20 -40 28 0 48 44 30 65 -7 8 -21 15 -31 15
-15 0 -19 -8 -19 -40z"/>
<path d="M1496 1280 c-4 -25 -10 -53 -12 -62 -4 -13 0 -18 15 -18 23 0 25 16
12 85 l-7 40 -8 -45z"/>
<path d="M2381 2127 c-19 -34 -60 -87 -91 -118 -83 -84 -160 -119 -312 -144
l-38 -6 0 -544 c0 -300 2 -545 4 -545 2 0 28 11 58 25 l53 25 363 0 362 0 0
685 0 685 -182 0 -183 0 -34 -63z m-291 -442 l0 -135 35 0 c32 0 35 -2 35 -30
l0 -30 -65 0 -65 0 0 165 0 165 30 0 30 0 0 -135z m180 12 c0 -136 11 -173 47
-151 16 10 18 28 21 143 l3 131 29 0 30 0 0 -141 c0 -77 -4 -149 -10 -159 -13
-24 -74 -44 -108 -35 -15 3 -37 16 -49 27 -22 20 -23 29 -23 165 l0 143 30 0
30 0 0 -123z m274 75 l20 -43 16 43 c13 37 20 43 48 46 17 2 32 -1 32 -6 0 -6
-14 -42 -31 -82 l-31 -73 20 -46 c11 -25 27 -63 36 -83 l16 -38 -39 0 c-37 0
-39 2 -52 45 -15 49 -21 48 -39 -7 -10 -34 -15 -38 -46 -38 -40 0 -40 2 2 99
13 29 24 59 24 66 0 7 -13 43 -30 80 -16 37 -30 71 -30 77 0 5 15 8 33 6 27
-3 35 -10 51 -46z m-419 -364 c2 -7 10 -49 17 -93 l14 -80 14 93 13 92 43 0
c24 0 44 -3 44 -7 0 -5 7 -66 15 -138 21 -185 21 -185 -14 -185 -35 0 -41 16
-41 118 0 39 -3 72 -8 72 -4 0 -14 -42 -22 -92 -14 -89 -16 -93 -42 -96 -26
-3 -26 -2 -45 99 -17 99 -18 101 -25 58 -3 -24 -7 -70 -7 -101 l-1 -58 -36 0
-36 0 6 53 c3 28 8 84 11 122 13 160 11 155 56 155 23 0 41 -5 44 -12z m345
-18 c0 -27 -3 -30 -30 -30 -28 0 -30 -3 -30 -34 0 -30 3 -35 28 -38 23 -3 27
-8 27 -33 0 -25 -4 -30 -27 -33 -25 -3 -28 -8 -28 -38 0 -31 2 -34 30 -34 27
0 30 -3 30 -30 l0 -30 -65 0 -65 0 0 165 0 165 65 0 65 0 0 -30z m206 -115
c19 -77 36 -150 39 -162 5 -20 2 -23 -29 -23 -28 0 -35 4 -40 25 -5 21 -12 25
-40 25 -28 0 -35 -4 -38 -22 -2 -18 -11 -24 -35 -26 -18 -2 -33 0 -33 4 0 13
71 307 76 316 3 5 20 8 36 6 30 -3 30 -3 64 -143z"/>
<path d="M2601 1309 c-1 -9 -4 -37 -7 -63 -6 -42 -5 -46 15 -46 17 0 20 5 16
23 -3 12 -9 40 -14 62 -5 22 -9 33 -10 24z"/>
<path d="M2820 1480 l0 -700 -363 0 c-406 0 -421 -2 -496 -67 l-42 -36 -27 26
c-15 14 -47 35 -72 46 -43 20 -64 21 -422 21 l-378 0 0 702 0 702 -45 -44 -45
-44 0 -703 0 -703 405 0 c450 0 466 -2 486 -60 l11 -30 93 0 c88 0 94 1 100
23 4 12 17 32 28 45 l20 22 414 0 413 0 0 713 -1 712 -34 38 c-20 20 -37 37
-40 37 -3 0 -5 -315 -5 -700z"/>
<path d="M3534 2145 c-4 -9 -2 -21 4 -27 16 -16 47 -5 47 17 0 26 -42 34 -51
10z"/>
<path d="M250 2095 c0 -20 5 -25 25 -25 20 0 25 5 25 25 0 20 -5 25 -25 25
-20 0 -25 -5 -25 -25z"/>
<path d="M3782 2028 c-82 -66 -146 -164 -178 -273 -16 -56 -18 -58 -27 -35
-54 136 -122 231 -189 266 -28 14 -28 14 -28 -19 0 -84 70 -215 170 -317 l50
-51 29 20 c57 41 141 143 177 216 30 60 38 90 42 150 2 41 2 75 0 75 -3 0 -23
-15 -46 -32z"/>
<path d="M3 1962 c14 -127 86 -257 197 -351 l64 -54 56 61 c93 103 159 230
160 310 0 38 -2 38 -47 11 -64 -40 -128 -140 -168 -264 -5 -15 -11 -4 -28 45
-12 36 -35 88 -51 115 -32 54 -126 154 -165 175 l-24 12 6 -60z"/>
<path d="M2930 1890 l0 -80 60 0 60 0 0 80 0 80 -60 0 -60 0 0 -80z"/>
<path d="M772 1873 l3 -78 60 0 60 0 3 78 3 77 -66 0 -66 0 3 -77z"/>
<path d="M3355 1718 c-8 -44 8 -132 38 -206 26 -64 106 -192 121 -192 15 0
107 60 158 102 63 53 124 146 149 230 12 38 19 72 15 75 -11 11 -118 -62 -177
-121 -37 -37 -73 -86 -94 -129 -19 -38 -35 -66 -35 -61 0 5 -7 39 -14 75 -18
86 -64 174 -114 223 l-41 39 -6 -35z"/>
<path d="M437 1675 c-42 -43 -84 -127 -97 -197 -23 -113 -18 -109 -53 -43 -54
101 -169 206 -261 241 -17 7 -19 4 -13 -32 19 -114 132 -257 261 -329 l66 -37
19 24 c36 43 100 173 116 233 17 66 20 175 5 175 -5 0 -24 -16 -43 -35z"/>
<path d="M3530 1575 c-18 -21 -5 -47 22 -43 26 3 37 36 16 49 -18 12 -24 11
-38 -6z"/>
<path d="M277 1543 c-13 -12 -7 -44 9 -50 23 -9 48 25 33 44 -12 14 -32 17
-42 6z"/>
<path d="M3304 1468 c-12 -39 -8 -161 9 -225 9 -34 30 -92 46 -128 35 -77 29
-77 158 -14 45 22 106 61 135 88 55 51 112 135 124 185 6 26 5 28 -17 21 -76
-21 -177 -82 -240 -145 -37 -37 -70 -77 -74 -89 -13 -41 -20 -20 -22 63 -2 93
-27 178 -68 232 -30 40 -41 42 -51 12z"/>
<path d="M507 1442 c-9 -10 -28 -44 -43 -77 -23 -49 -28 -78 -32 -163 l-5
-103 -19 32 c-34 56 -122 133 -194 171 -84 44 -144 62 -144 44 0 -19 47 -104
79 -143 59 -72 200 -159 288 -177 30 -7 33 -5 51 31 54 105 81 257 62 347 -12
60 -18 66 -43 38z"/>
<path d="M3207 1213 c-45 -98 -17 -403 37 -403 89 1 248 67 323 134 53 48 107
119 102 134 -6 15 -139 -17 -206 -49 -35 -17 -91 -56 -124 -87 l-62 -56 6 39
c17 109 18 136 7 195 -11 59 -43 140 -56 140 -3 0 -15 -21 -27 -47z"/>
<path d="M591 1181 c-29 -67 -36 -170 -19 -253 8 -38 12 -68 8 -68 -3 0 -19
14 -36 31 -45 49 -125 96 -207 124 -76 25 -147 33 -147 16 0 -16 75 -105 113
-134 79 -60 228 -116 309 -117 23 0 29 6 38 38 24 83 33 201 21 272 -11 68
-38 140 -52 140 -3 0 -16 -22 -28 -49z"/>
<path d="M780 1130 l0 -80 60 0 60 0 0 80 0 80 -60 0 -60 0 0 -80z"/>
<path d="M2932 1113 l3 -78 60 0 60 0 3 78 3 77 -66 0 -66 0 3 -77z"/>
<path d="M3327 1043 c-13 -12 -7 -41 10 -47 21 -9 46 16 37 37 -6 17 -35 23
-47 10z"/>
<path d="M3092 1016 c-9 -20 -6 -28 18 -57 33 -39 39 -26 18 42 -13 45 -21 48
-36 15z"/>
<path d="M491 1006 c-17 -20 -2 -48 23 -44 24 3 34 37 14 49 -18 12 -24 11
-37 -5z"/>
<path d="M730 959 c-19 -80 -4 -179 46 -303 6 -15 -2 -13 -39 13 -81 55 -169
82 -287 88 l-105 5 50 -51 c88 -91 220 -141 374 -141 l79 0 5 58 c7 79 -9 211
-34 276 -20 55 -53 106 -69 106 -4 0 -14 -23 -20 -51z"/>
<path d="M2930 872 l0 -77 351 -290 351 -290 76 -3 75 -3 -291 299 c-160 164
-321 331 -358 370 l-66 72 -69 0 -69 0 0 -78z"/>
<path d="M883 918 c-5 -8 -4 -34 3 -68 l12 -55 1 68 c1 70 -1 75 -16 55z"/>
<path d="M3346 789 c-22 -5 -42 -12 -45 -14 -6 -7 80 -95 92 -95 15 0 85 59
107 91 l21 29 -68 -1 c-37 -1 -86 -5 -107 -10z"/>
<path d="M3032 634 c3 -38 4 -39 46 -42 59 -4 57 1 -21 59 l-28 21 3 -38z"/>
<path d="M2811 623 c-15 -56 -30 -187 -22 -195 4 -5 43 -13 88 -19 105 -15
212 0 305 43 38 17 68 34 68 39 0 4 -19 22 -42 39 -40 30 -47 31 -103 25 -84
-9 -142 -24 -197 -52 -53 -26 -57 -24 -28 17 21 29 60 115 60 131 0 5 -27 9
-60 9 l-59 0 -10 -37z"/>
<path d="M925 628 c10 -32 44 -97 66 -130 11 -14 19 -28 19 -31 0 -3 -27 6
-60 19 -33 14 -85 29 -117 35 -64 12 -193 6 -238 -11 l-29 -11 49 -34 c77 -56
146 -77 260 -82 63 -2 120 1 155 10 l55 13 -3 56 c-2 30 -11 84 -20 119 l-17
64 -63 3 c-62 3 -64 3 -57 -20z"/>
<path d="M1114 603 c9 -67 55 -159 109 -219 26 -29 47 -54 47 -57 0 -3 -21 1
-47 9 -95 29 -281 12 -368 -33 l-30 -16 65 -31 c110 -51 283 -49 413 6 54 23
55 30 28 109 -48 142 -146 279 -199 279 -24 0 -24 -2 -18 -47z"/>
<path d="M2657 608 c-18 -24 -43 -59 -55 -78 -26 -45 -85 -217 -77 -229 3 -5
36 -20 73 -33 56 -19 87 -23 192 -23 121 0 127 1 195 33 69 33 70 34 45 47
-81 43 -265 58 -367 31 -59 -16 -65 -11 -27 25 38 35 90 126 108 188 22 76 21
81 -18 81 -29 0 -41 -7 -69 -42z"/>
<path d="M2944 595 c-4 -9 -2 -21 4 -27 16 -16 47 -5 47 17 0 26 -42 34 -51
10z"/>
<path d="M882 581 c-20 -12 -10 -46 14 -49 25 -4 40 24 23 44 -13 16 -19 17
-37 5z"/>
<path d="M391 381 c-127 -134 -171 -186 -171 -205 0 -43 10 -56 46 -56 28 0
56 20 196 142 90 78 165 143 168 145 3 3 -4 9 -14 15 -11 6 -36 26 -55 45 -35
32 -35 34 -17 48 11 8 35 18 55 21 30 6 32 8 16 15 -11 4 -27 8 -37 8 -9 1
-93 -80 -187 -178z"/>
<path d="M2469 532 c-61 -39 -137 -127 -180 -209 -61 -113 -62 -106 33 -152
86 -43 193 -71 263 -70 53 1 170 31 168 44 -3 16 -124 74 -191 91 -40 10 -94
14 -146 12 l-82 -3 71 70 c72 70 116 142 130 213 8 41 -6 42 -66 4z"/>
<path d="M1335 518 c15 -70 51 -125 129 -203 l81 -80 -76 3 c-110 5 -248 -37
-334 -101 -18 -14 -16 -16 35 -31 129 -38 319 -2 440 84 35 25 32 37 -35 146
-50 80 -132 162 -193 193 -53 27 -55 27 -47 -11z"/>
<path d="M1580 445 c0 -3 9 -23 19 -43 30 -59 106 -138 177 -184 l65 -42 -86
-17 c-95 -19 -197 -63 -256 -110 -48 -37 -49 -49 -6 -49 99 1 253 56 347 125
26 19 50 35 54 35 3 0 6 -25 6 -55 l0 -55 35 0 35 0 0 60 c0 33 3 60 6 60 3 0
25 -16 47 -36 78 -66 199 -112 335 -128 60 -8 65 1 25 40 -44 42 -165 94 -258
112 -47 10 -85 19 -85 22 0 3 25 21 56 40 64 40 146 125 174 181 24 47 24 49
3 49 -61 -1 -178 -94 -259 -205 l-44 -59 0 42 c0 41 -1 42 -35 42 -32 0 -35
-2 -35 -30 0 -40 -12 -38 -44 9 -42 61 -150 159 -198 181 -42 19 -78 26 -78
15z"/>
<path d="M2443 314 c-3 -8 2 -23 11 -32 15 -15 17 -15 32 0 21 21 11 48 -16
48 -11 0 -23 -7 -27 -16z"/>
<path d="M1384 305 c-8 -21 2 -45 19 -45 21 0 38 25 31 44 -8 20 -43 21 -50 1z"/>
</g>
</svg>
